<svg width="1020" height="774" viewBox="0 0 1020 774" fill="none" xmlns="http://www.w3.org/2000/svg">
<rect width="1020" height="774" fill="white"/>
<g style="mix-blend-mode:darken" filter="url(#filter0_d_1_3)">
<path fill-rule="evenodd" clip-rule="evenodd" d="M420.286 374.047C420.009 375.117 418.924 375.792 417.851 375.529L415.908 375.054C414.835 374.792 414.181 373.692 414.457 372.623C431.927 304.995 488.548 276.411 537.789 284.267C562.628 288.229 585.594 301.474 600.56 323.62C615.282 345.404 622.085 375.53 615.678 413.347C615.493 414.436 614.45 415.165 613.363 414.969L611.395 414.614C610.308 414.418 609.588 413.371 609.772 412.282C615.953 375.729 609.288 347.25 595.589 326.98C581.634 306.329 560.193 293.917 536.844 290.192C490.648 282.822 436.997 309.498 420.286 374.047ZM410.339 526.866C375.43 516.547 356.558 499.062 348.633 480.373C340.362 460.87 343.732 439.41 354.287 422.089C364.856 404.747 382.43 391.887 402.078 389.428C421.156 387.04 442.753 394.393 462.391 418.131C463.095 418.982 464.358 419.129 465.22 418.439L466.782 417.19C467.645 416.5 467.781 415.235 467.078 414.383C446.344 389.285 422.809 380.787 401.333 383.475C379.577 386.198 360.519 400.333 349.164 418.967C337.795 437.621 333.95 461.116 343.109 482.715C352.146 504.027 373.573 522.869 411.393 533.411C412.263 533.654 412.879 534.447 412.879 535.35V580.292V581.769C412.879 583.184 414.309 584.152 415.622 583.626L416.994 583.077C489.589 554.025 533.772 547.657 617.715 551.245C618.279 551.269 618.769 550.832 618.793 550.269C618.817 549.723 619.267 549.292 619.814 549.292H620.324C621.183 549.292 621.879 548.596 621.879 547.737V513.898C621.879 513.069 622.704 512.52 623.451 512.79V520C654.719 520 677.284 508.413 691.546 490.927C705.726 473.54 711.392 450.699 709.716 428.599C708.04 406.505 699.002 384.785 683.288 369.592C667.473 354.302 645.092 345.83 617.391 350.105L618.611 358.011C643.851 354.116 663.72 361.801 677.727 375.344C691.834 388.983 700.189 408.77 701.738 429.204C703.288 449.631 698.012 470.34 685.346 485.87C673.044 500.955 653.477 511.518 625.395 511.984C629.27 504.363 631.135 497.367 630.994 491.055C630.842 484.275 628.376 478.468 623.954 473.77C615.28 464.553 599.427 459.925 579.706 459.126C540.216 457.526 482.316 471.161 424.235 500.142C424 500.259 423.742 500.33 423.48 500.348C412.421 501.097 402.171 500.27 394.288 496.757C386.881 493.457 381.424 487.74 379.334 478.125C379.099 477.046 378.079 476.303 376.988 476.479L375.014 476.798C373.923 476.974 373.177 478.005 373.404 479.086C375.859 490.811 382.668 498.148 391.846 502.238C401.308 506.454 413.114 507.154 424.917 506.26L425.113 506.245C425.373 506.226 425.626 506.155 425.859 506.039L426.035 505.95C483.821 476.961 541.089 463.566 579.463 465.121C598.776 465.904 612.582 470.442 619.585 477.882C623.001 481.512 624.877 485.906 624.995 491.189C625.028 492.655 624.925 494.202 624.676 495.832C624.345 497.989 621.879 497.587 621.879 495.404V484.292C621.879 483.187 620.984 482.292 619.879 482.292H617.879C616.775 482.292 615.879 483.187 615.879 484.292V543.079C615.879 544.215 614.912 545.122 613.776 545.078C534.425 541.957 489.944 548.164 421.635 574.792C420.321 575.305 418.879 574.345 418.879 572.934V511.792C418.879 510.687 417.984 509.792 416.879 509.792H414.879C413.775 509.792 412.879 510.687 412.879 511.792V524.961C412.879 526.285 411.609 527.242 410.339 526.866Z" fill="black"/>
<path d="M417.851 375.529L418.801 371.644L418.801 371.644L417.851 375.529ZM420.286 374.047L416.414 373.045L416.414 373.045L420.286 374.047ZM415.908 375.054L414.958 378.94L414.958 378.94L415.908 375.054ZM414.457 372.623L410.584 371.622L410.584 371.622L414.457 372.623ZM537.789 284.267L538.42 280.317L538.42 280.317L537.789 284.267ZM600.56 323.62L597.246 325.86L597.246 325.86L600.56 323.62ZM615.678 413.347L611.734 412.679L611.734 412.679L615.678 413.347ZM613.363 414.969L614.073 411.033L614.073 411.033L613.363 414.969ZM611.395 414.614L610.685 418.551L610.685 418.551L611.395 414.614ZM609.772 412.282L605.828 411.615L605.828 411.615L609.772 412.282ZM595.589 326.98L592.275 329.219L592.275 329.219L595.589 326.98ZM536.844 290.192L536.214 294.142L536.214 294.142L536.844 290.192ZM348.633 480.373L352.315 478.811L352.315 478.811L348.633 480.373ZM410.339 526.866L411.473 523.03L411.473 523.03L410.339 526.866ZM354.287 422.089L350.872 420.007L350.872 420.007L354.287 422.089ZM402.078 389.428L402.575 393.397L402.575 393.397L402.078 389.428ZM462.391 418.131L459.309 420.681L459.309 420.681L462.391 418.131ZM465.22 418.439L462.722 415.316L462.722 415.316L465.22 418.439ZM466.782 417.19L469.28 420.314L469.28 420.314L466.782 417.19ZM467.078 414.383L463.994 416.931L463.994 416.931L467.078 414.383ZM401.333 383.475L400.836 379.506L400.836 379.506L401.333 383.475ZM349.164 418.967L345.748 416.885L345.748 416.885L349.164 418.967ZM343.109 482.715L339.426 484.277L339.426 484.277L343.109 482.715ZM411.393 533.411L412.467 529.558L412.467 529.558L411.393 533.411ZM415.622 583.626L414.136 579.912L414.136 579.912L415.622 583.626ZM416.994 583.077L418.48 586.791L418.48 586.791L416.994 583.077ZM617.715 551.245L617.544 555.241L617.545 555.241L617.715 551.245ZM618.793 550.269L622.79 550.443L622.79 550.443L618.793 550.269ZM623.451 512.79H627.451V509.985L624.814 509.03L623.451 512.79ZM623.451 520H619.451V524H623.451V520ZM691.546 490.927L688.446 488.399L688.446 488.399L691.546 490.927ZM709.716 428.599L713.704 428.296L713.704 428.296L709.716 428.599ZM683.288 369.592L686.068 366.716L686.068 366.716L683.288 369.592ZM617.391 350.105L616.781 346.152L612.828 346.762L613.438 350.715L617.391 350.105ZM618.611 358.011L614.658 358.622L615.268 362.575L619.221 361.965L618.611 358.011ZM677.727 375.344L674.947 378.219L674.947 378.219L677.727 375.344ZM701.738 429.204L697.75 429.506L697.75 429.506L701.738 429.204ZM685.346 485.87L682.246 483.342L682.246 483.342L685.346 485.87ZM625.395 511.984L621.83 510.171L618.819 516.093L625.462 515.983L625.395 511.984ZM630.994 491.055L626.995 491.144L626.995 491.144L630.994 491.055ZM623.954 473.77L621.041 476.511L621.041 476.511L623.954 473.77ZM579.706 459.126L579.544 463.123L579.544 463.123L579.706 459.126ZM424.235 500.142L422.449 496.563L422.449 496.563L424.235 500.142ZM423.48 500.348L423.21 496.357L423.21 496.357L423.48 500.348ZM394.288 496.757L392.66 500.411L392.66 500.411L394.288 496.757ZM379.334 478.125L383.243 477.276L383.243 477.276L379.334 478.125ZM376.988 476.479L376.351 472.53L376.351 472.53L376.988 476.479ZM375.014 476.798L375.652 480.747L375.652 480.747L375.014 476.798ZM373.404 479.086L377.319 478.266L377.319 478.266L373.404 479.086ZM391.846 502.238L390.218 505.891L390.218 505.892L391.846 502.238ZM424.917 506.26L425.219 510.249L425.219 510.249L424.917 506.26ZM425.113 506.245L424.811 502.257L424.811 502.257L425.113 506.245ZM425.859 506.039L424.066 502.463L424.065 502.463L425.859 506.039ZM426.035 505.95L427.829 509.526L427.829 509.526L426.035 505.95ZM579.463 465.121L579.302 469.118L579.302 469.118L579.463 465.121ZM619.585 477.882L622.498 475.141L622.498 475.141L619.585 477.882ZM624.995 491.189L628.994 491.099L628.994 491.099L624.995 491.189ZM624.676 495.832L628.63 496.437L628.63 496.437L624.676 495.832ZM613.776 545.078L613.933 541.081L613.933 541.081L613.776 545.078ZM421.635 574.792L423.088 578.519L423.088 578.519L421.635 574.792ZM416.901 379.415C420.177 380.216 423.353 378.159 424.158 375.05L416.414 373.045C416.665 372.075 417.67 371.367 418.801 371.644L416.901 379.415ZM414.958 378.94L416.901 379.415L418.801 371.644L416.858 371.169L414.958 378.94ZM410.584 371.622C409.753 374.839 411.708 378.145 414.958 378.94L416.858 371.169C417.962 371.439 418.608 372.546 418.33 373.623L410.584 371.622ZM538.42 280.317C487.167 272.14 428.576 301.972 410.584 371.622L418.33 373.623C435.277 308.018 489.928 280.682 537.159 288.217L538.42 280.317ZM603.874 321.38C588.234 298.236 564.251 284.438 538.42 280.317L537.159 288.217C561.005 292.021 582.954 304.711 597.246 325.86L603.874 321.38ZM619.621 414.015C626.168 375.374 619.272 344.164 603.874 321.38L597.246 325.86C611.292 346.644 618.001 375.685 611.734 412.679L619.621 414.015ZM612.654 418.906C615.923 419.495 619.064 417.307 619.621 414.015L611.734 412.679C611.922 411.565 612.978 410.835 614.073 411.033L612.654 418.906ZM610.685 418.551L612.654 418.906L614.073 411.033L612.105 410.678L610.685 418.551ZM605.828 411.615C605.287 414.818 607.394 417.957 610.685 418.551L612.105 410.678C613.222 410.879 613.89 411.924 613.717 412.949L605.828 411.615ZM592.275 329.219C605.298 348.491 611.869 375.887 605.828 411.615L613.717 412.949C620.036 375.572 613.277 346.009 598.903 324.74L592.275 329.219ZM536.214 294.142C558.57 297.709 578.993 309.566 592.275 329.219L598.903 324.74C584.274 303.092 561.817 290.125 537.474 286.242L536.214 294.142ZM424.158 375.05C440.346 312.522 492.027 287.093 536.214 294.142L537.474 286.242C489.268 278.551 433.649 306.474 416.414 373.045L424.158 375.05ZM344.95 481.934C353.466 502.017 373.494 520.146 409.205 530.702L411.473 523.03C377.366 512.948 359.649 496.106 352.315 478.811L344.95 481.934ZM350.872 420.007C339.774 438.218 336.088 461.035 344.95 481.934L352.315 478.811C344.637 460.705 347.69 440.601 357.703 424.171L350.872 420.007ZM401.581 385.459C380.529 388.094 361.965 401.804 350.872 420.007L357.703 424.171C367.747 407.69 384.331 395.681 402.575 393.397L401.581 385.459ZM465.473 415.581C445.111 390.97 422.233 382.874 401.581 385.459L402.575 393.397C420.08 391.206 440.394 397.817 459.309 420.681L465.473 415.581ZM462.722 415.316C463.613 414.603 464.826 414.799 465.473 415.581L459.309 420.681C461.365 423.166 465.102 423.656 467.719 421.563L462.722 415.316ZM464.284 414.066L462.722 415.316L467.718 421.563L469.28 420.314L464.284 414.066ZM463.994 416.931C463.261 416.044 463.418 414.759 464.284 414.066L469.28 420.314C471.871 418.242 472.301 414.426 470.161 411.835L463.994 416.931ZM401.83 387.444C421.727 384.953 443.981 392.705 463.994 416.931L470.161 411.835C448.708 385.866 423.89 376.62 400.836 379.506L401.83 387.444ZM352.58 421.048C363.411 403.275 381.48 389.991 401.83 387.444L400.836 379.506C377.675 382.404 357.628 397.392 345.748 416.885L352.58 421.048ZM346.791 481.154C338.225 460.953 341.753 438.814 352.58 421.048L345.748 416.885C333.838 436.428 329.674 461.28 339.426 484.277L346.791 481.154ZM412.467 529.558C375.448 519.239 355.221 501.032 346.791 481.154L339.426 484.277C349.072 507.023 371.698 526.499 410.319 537.264L412.467 529.558ZM416.879 535.35C416.879 532.608 415.026 530.271 412.467 529.558L410.319 537.264C409.501 537.036 408.879 536.285 408.879 535.35H416.879ZM416.879 580.292V535.35H408.879V580.292H416.879ZM416.879 581.769V580.292H408.879V581.769H416.879ZM414.136 579.912C415.45 579.387 416.879 580.354 416.879 581.769H408.879C408.879 586.014 413.167 588.917 417.109 587.34L414.136 579.912ZM415.508 579.364L414.136 579.912L417.109 587.34L418.48 586.791L415.508 579.364ZM617.886 547.248C533.457 543.64 488.699 550.073 415.508 579.364L418.48 586.791C490.48 557.978 534.087 551.674 617.544 555.241L617.886 547.248ZM614.797 550.095C614.872 548.384 616.313 547.181 617.886 547.248L617.545 555.241C620.244 555.356 622.666 553.281 622.79 550.443L614.797 550.095ZM619.814 545.292C617.125 545.292 614.914 547.409 614.797 550.095L622.79 550.443C622.72 552.036 621.408 553.292 619.814 553.292V545.292ZM620.324 545.292H619.814V553.292H620.324V545.292ZM617.879 547.737C617.879 546.387 618.974 545.292 620.324 545.292V553.292C623.392 553.292 625.879 550.805 625.879 547.737H617.879ZM617.879 513.898V547.737H625.879V513.898H617.879ZM624.814 509.03C621.516 507.834 617.879 510.235 617.879 513.898H625.879C625.879 515.903 623.893 517.205 622.088 516.551L624.814 509.03ZM627.451 520V512.79H619.451V520H627.451ZM688.446 488.399C675.023 504.857 653.648 516 623.451 516V524C655.79 524 679.545 511.97 694.646 493.455L688.446 488.399ZM705.727 428.901C707.34 450.166 701.869 471.94 688.446 488.399L694.646 493.455C709.583 475.139 715.444 451.233 713.704 428.296L705.727 428.901ZM680.507 372.468C695.418 386.884 704.114 407.637 705.727 428.901L713.704 428.296C711.965 405.373 702.585 382.686 686.068 366.716L680.507 372.468ZM618.001 354.058C644.472 349.973 665.597 358.052 680.507 372.468L686.068 366.716C669.35 350.553 645.713 341.687 616.781 346.152L618.001 354.058ZM622.564 357.401L621.344 349.495L613.438 350.715L614.658 358.622L622.564 357.401ZM680.507 372.468C665.597 358.052 644.472 349.973 618.001 354.058L619.221 361.965C643.23 358.259 661.843 365.55 674.947 378.219L680.507 372.468ZM705.727 428.901C704.114 407.637 695.418 386.884 680.507 372.468L674.947 378.219C688.251 391.082 696.263 409.903 697.75 429.506L705.727 428.901ZM688.446 488.399C701.869 471.94 707.34 450.166 705.727 428.901L697.75 429.506C699.236 449.097 694.155 468.74 682.246 483.342L688.446 488.399ZM625.462 515.983C654.605 515.5 675.328 504.483 688.446 488.399L682.246 483.342C670.76 497.427 652.349 507.536 625.329 507.984L625.462 515.983ZM626.995 491.144C627.117 496.607 625.504 502.943 621.83 510.171L628.961 513.797C633.035 505.783 635.153 498.127 634.993 490.965L626.995 491.144ZM621.041 476.511C624.793 480.498 626.865 485.363 626.995 491.144L634.993 490.965C634.819 483.188 631.959 476.439 626.867 471.029L621.041 476.511ZM579.544 463.123C598.993 463.911 613.482 468.479 621.041 476.511L626.867 471.029C617.079 460.628 599.861 455.939 579.868 455.129L579.544 463.123ZM426.021 503.721C483.708 474.937 540.929 461.558 579.544 463.123L579.868 455.129C539.503 453.494 480.924 467.385 422.449 496.563L426.021 503.721ZM423.75 504.339C424.55 504.285 425.322 504.07 426.021 503.721L422.449 496.563C422.678 496.448 422.935 496.376 423.21 496.357L423.75 504.339ZM392.66 500.411C401.419 504.314 412.438 505.105 423.751 504.339L423.21 496.357C412.404 497.089 402.923 496.226 395.916 493.103L392.66 500.411ZM375.425 478.975C377.805 489.919 384.172 496.629 392.66 500.411L395.916 493.103C389.591 490.285 385.044 485.561 383.243 477.276L375.425 478.975ZM377.626 480.428C376.482 480.613 375.612 479.835 375.425 478.975L383.243 477.276C382.586 474.257 379.676 471.993 376.351 472.53L377.626 480.428ZM375.652 480.747L377.626 480.428L376.351 472.53L374.376 472.849L375.652 480.747ZM377.319 478.266C377.584 479.533 376.697 480.578 375.652 480.747L374.376 472.849C371.15 473.37 368.771 476.477 369.489 479.906L377.319 478.266ZM393.474 498.584C385.399 494.986 379.496 488.661 377.319 478.266L369.489 479.906C372.223 492.961 379.937 501.311 390.218 505.891L393.474 498.584ZM424.615 502.272C413.058 503.147 402.039 502.4 393.474 498.584L390.218 505.892C400.577 510.507 413.171 511.161 425.219 510.249L424.615 502.272ZM424.811 502.257L424.615 502.272L425.219 510.249L425.415 510.234L424.811 502.257ZM424.065 502.463C424.298 502.347 424.552 502.276 424.811 502.257L425.415 510.234C426.194 510.175 426.954 509.964 427.653 509.614L424.065 502.463ZM424.242 502.375L424.066 502.463L427.653 509.614L427.829 509.526L424.242 502.375ZM579.625 461.124C540.373 459.534 482.423 473.188 424.242 502.375L427.829 509.526C485.219 480.735 541.806 467.599 579.302 469.118L579.625 461.124ZM622.498 475.141C614.381 466.516 599.21 461.918 579.625 461.124L579.302 469.118C598.341 469.889 610.784 474.367 616.672 480.623L622.498 475.141ZM628.994 491.099C628.854 484.819 626.584 479.483 622.498 475.141L616.672 480.623C619.418 483.542 620.9 486.994 620.996 491.278L628.994 491.099ZM628.63 496.437C628.912 494.595 629.033 492.815 628.994 491.099L620.996 491.278C621.023 492.494 620.939 493.808 620.722 495.226L628.63 496.437ZM617.879 495.404C617.879 498.049 619.545 500.726 622.531 501.197C623.967 501.423 625.474 501.044 626.661 500.054C627.838 499.073 628.432 497.729 628.63 496.437L620.722 495.226C620.754 495.013 620.916 494.428 621.537 493.91C622.169 493.383 622.998 493.172 623.776 493.294C625.447 493.558 625.879 494.942 625.879 495.404H617.879ZM617.879 484.292V495.404H625.879V484.292H617.879ZM619.879 486.292C618.775 486.292 617.879 485.396 617.879 484.292H625.879C625.879 480.978 623.193 478.292 619.879 478.292V486.292ZM617.879 486.292H619.879V478.292H617.879V486.292ZM619.879 484.292C619.879 485.397 618.984 486.292 617.879 486.292V478.292C614.566 478.292 611.879 480.978 611.879 484.292H619.879ZM619.879 543.079V484.292H611.879V543.079H619.879ZM613.619 549.075C616.963 549.206 619.879 546.547 619.879 543.079H611.879C611.879 541.884 612.861 541.039 613.933 541.081L613.619 549.075ZM423.088 578.519C490.808 552.12 534.729 545.972 613.619 549.075L613.933 541.081C534.12 537.942 489.08 544.208 420.182 571.065L423.088 578.519ZM414.879 572.934C414.879 577.239 419.226 580.025 423.088 578.519L420.182 571.065C421.416 570.584 422.879 571.451 422.879 572.934H414.879ZM414.879 511.792V572.934H422.879V511.792H414.879ZM416.879 513.792C415.775 513.792 414.879 512.897 414.879 511.792H422.879C422.879 508.478 420.193 505.792 416.879 505.792V513.792ZM414.879 513.792H416.879V505.792H414.879V513.792ZM416.879 511.792C416.879 512.897 415.984 513.792 414.879 513.792V505.792C411.566 505.792 408.879 508.478 408.879 511.792H416.879ZM416.879 524.961V511.792H408.879V524.961H416.879ZM409.205 530.702C413.058 531.841 416.879 528.936 416.879 524.961H408.879C408.879 523.634 410.159 522.642 411.473 523.03L409.205 530.702Z" fill="black"/>
</g>
<defs>
<filter id="filter0_d_1_3" x="331.999" y="279" width="388.002" height="316.775" filterUnits="userSpaceOnUse" color-interpolation-filters="sRGB">
<feFlood flood-opacity="0" result="BackgroundImageFix"/>
<feColorMatrix in="SourceAlpha" type="matrix" values="0 0 0 0 0 0 0 0 0 0 0 0 0 0 0 0 0 0 127 0" result="hardAlpha"/>
<feOffset dx="2" dy="4"/>
<feGaussianBlur stdDeviation="2"/>
<feComposite in2="hardAlpha" operator="out"/>
<feColorMatrix type="matrix" values="0 0 0 0 0 0 0 0 0 0 0 0 0 0 0 0 0 0 0.25 0"/>
<feBlend mode="normal" in2="BackgroundImageFix" result="effect1_dropShadow_1_3"/>
<feBlend mode="normal" in="SourceGraphic" in2="effect1_dropShadow_1_3" result="shape"/>
</filter>
</defs>
</svg>
