<svg xmlns="http://www.w3.org/2000/svg" xmlns:xlink="http://www.w3.org/1999/xlink" xml:space="preserve" version="1.1" style="shape-rendering:geometricPrecision;text-rendering:geometricPrecision;image-rendering:optimizeQuality;" viewBox="0 0 846.66 1058.325" x="0px" y="0px" fill-rule="evenodd" clip-rule="evenodd"><defs><style type="text/css">
   
    .fil0 {fill:black}
   
  </style></defs><g><path class="fil0" d="M138.07 605.23c-134.4,-87.9 -159.96,-145.07 -96.57,-239.86 67.14,-100.39 194.38,-26.86 342.72,-122.77 148.34,-95.91 280.05,-84.4 335.04,20.46 54.99,104.87 120.21,62.66 118.93,149.62 -1.22,82.94 -93.17,156.57 -101.67,163.2 0,22.83 0,69.04 0.02,93.71l-1.2 -0.42c-132.73,-45.57 -463.36,-45.57 -596.1,0l-1.2 0.42c0.02,-16.35 0.03,-42.16 0.03,-64.36zm559.47 -69.85c-17.48,-5.1 -37.51,-9.49 -59.41,-13.19 71.23,-33.04 87.84,-89.1 87.84,-89.1 0,0 2.89,68.1 -28.43,102.29zm-160.96 -24.67c-23.93,-1.62 -48.62,-2.63 -73.49,-3.04 -70.04,-75.24 -47.32,-120.37 -47.32,-120.37 15.49,29.73 74.04,83.35 120.81,123.41zm-131.85 -2.92c-34.47,0.73 -68.47,2.62 -100.49,5.66 -32.88,-18.9 -65.79,-46.47 -55.98,-77.87l156.47 72.21zm-180.71 16.62c-24.03,4.51 -45.48,9.92 -63.33,16.22 -27.82,-15.82 -58,-38.38 -63.21,-63.81 0,0 71.36,38.31 126.54,47.59z"/></g><text x="0" y="861.66" fill="#000000" font-size="5px" font-weight="bold" font-family="'Helvetica Neue', Helvetica, Arial-Unicode, Arial, Sans-serif">Created by ahmad bahrudi</text><text x="0" y="866.66" fill="#000000" font-size="5px" font-weight="bold" font-family="'Helvetica Neue', Helvetica, Arial-Unicode, Arial, Sans-serif">from the Noun Project</text></svg>