<svg xmlns="http://www.w3.org/2000/svg" viewBox="0 0 48 60" x="0px" y="0px"><g data-name="Chef's Hat"><path d="M38.631,13.152a.5.5,0,0,1-.174.031.5.5,0,0,1-.468-.326,6.22,6.22,0,0,0-.963-1.741,5.331,5.331,0,0,0-3.568-1.8.5.5,0,0,1,.172-.985,6.364,6.364,0,0,1,4.179,2.164,7.313,7.313,0,0,1,1.117,2.015A.5.5,0,0,1,38.631,13.152Zm.327,1.615a.5.5,0,1,0,.5.5A.5.5,0,0,0,38.958,14.767ZM12.276,34.372a.5.5,0,1,0,.5.5A.5.5,0,0,0,12.276,34.372Zm-.214-1.505a.5.5,0,0,0,.124-.7c-.015-.021-1.528-2.2-2.713-4.2a.5.5,0,0,0-.861.509c1.2,2.036,2.738,4.24,2.754,4.263a.5.5,0,0,0,.41.214A.506.506,0,0,0,12.062,32.867ZM36.94,17.819a5.891,5.891,0,0,1-.273,4.652,10.562,10.562,0,0,0-.8,2.761,5.98,5.98,0,0,1-1.452,3.376l-.138,7.929a.512.512,0,0,1-.045.2c-.485,1.986-8.628,2.711-9.593,2.789-.4.033-2.021.154-3.846.154-2.746,0-5.947-.277-6.141-1.544,0-.012-.009-.021-.01-.033l-.887-7.172a59.868,59.868,0,0,1-3.289-5.275,13.613,13.613,0,0,1-1.352-5.416A33.207,33.207,0,0,1,11.5,14.7a1.856,1.856,0,0,0,.2-.492c.211-.723.5-1.1,2.385-1.711a3.741,3.741,0,0,0,1.621-.978c.655-.61,1.274-1.187,3.769-1.187a3.446,3.446,0,0,0,1.354-.315,4.7,4.7,0,0,1,2.8-.329A2.7,2.7,0,0,0,25,9.618c.748-.207,1.294-.28,3.041.832a1.269,1.269,0,0,0,1.187.083,2.456,2.456,0,0,1,2.125.215,5.066,5.066,0,0,0,1.765.537,3.463,3.463,0,0,1,2.346,1.073,8,8,0,0,1,1.214,4.113l.038.346A6.379,6.379,0,0,0,36.94,17.819ZM14.765,30.928l.741,5.986A9.159,9.159,0,0,1,17.64,36.1a38.475,38.475,0,0,1,6.639-1.06c.808-.065,6.662-.5,9.018.468l.119-6.844c-.692-.449-3.444-1.914-9.189-1.323C18.346,27.948,15.442,30.3,14.765,30.928Zm18.479,5.643c-.507-.415-3.5-.968-8.884-.531s-8.249,1.463-8.684,1.955c.508.416,3.5.969,8.885.531S32.81,37.063,33.244,36.571Zm2.734-18.48a7.161,7.161,0,0,1-.261-1.164l-.038-.35a7.209,7.209,0,0,0-1-3.6,2.615,2.615,0,0,0-1.735-.709,5.928,5.928,0,0,1-2.1-.663,1.5,1.5,0,0,0-1.363-.106,2.216,2.216,0,0,1-1.975-.207c-1.46-.93-1.768-.844-2.234-.713a3.711,3.711,0,0,1-1.8.1,3.735,3.735,0,0,0-2.275.274,4.36,4.36,0,0,1-1.715.382c-2.1,0-2.536.406-3.087.919a4.746,4.746,0,0,1-2,1.2c-1.578.509-1.636.709-1.733,1.04a2.786,2.786,0,0,1-.307.73,36.584,36.584,0,0,0-2.24,5.1A12.9,12.9,0,0,0,11.36,25.2a55.3,55.3,0,0,0,2.963,4.784,10.262,10.262,0,0,1,.932-.709,33.021,33.021,0,0,1-1.773-5.31,15.476,15.476,0,0,1-.223-4.592c.03-.469.06-.915.06-1.352,0-.54-.111-.776-.176-.831a.507.507,0,0,1-.326-.961,1.032,1.032,0,0,1,.9.145,1.918,1.918,0,0,1,.6,1.647c0,.458-.031.925-.062,1.417a14.6,14.6,0,0,0,.2,4.319,31.9,31.9,0,0,0,1.656,4.985,15.572,15.572,0,0,1,1.606-.8c-.051-.151-.1-.3-.152-.455a15.618,15.618,0,0,1-.769-8.428c.515-3.557.35-4.612.121-4.87-.068-.076-.1-.072-.122-.075a1.041,1.041,0,0,0-.531.365.5.5,0,0,1-.7.07.5.5,0,0,1-.074-.7,1.959,1.959,0,0,1,1.283-.734,1.083,1.083,0,0,1,.893.41c.584.657.618,2.249.121,5.678a14.738,14.738,0,0,0,.725,7.957c.049.142.091.275.137.412a20.628,20.628,0,0,1,2.275-.676,20.782,20.782,0,0,1-.459-6.293c.047-.415.181-1.118.337-1.932.316-1.647.844-4.4.632-5.18-.085-.31-.215-.3-.272-.3a.844.844,0,0,0-.667.526.5.5,0,1,1-.979-.2,1.819,1.819,0,0,1,1.614-1.325A1.258,1.258,0,0,1,22.4,13.224c.253.927-.112,3.007-.615,5.631-.151.794-.283,1.48-.326,1.857a19.713,19.713,0,0,0,.445,5.968c.692-.134,1.424-.249,2.217-.331.382-.039.745-.065,1.1-.088a15.929,15.929,0,0,1-.208-4.311,21.6,21.6,0,0,1,1.369-4.379,13.216,13.216,0,0,0,.884-2.714,1.42,1.42,0,0,0-.165-1.054.635.635,0,0,0-.342-.217.5.5,0,1,1,.095-1,1.59,1.59,0,0,1,1.03.59,2.326,2.326,0,0,1,.374,1.808,13.772,13.772,0,0,1-.946,2.949,20.764,20.764,0,0,0-1.312,4.174,15.519,15.519,0,0,0,.228,4.107,21.6,21.6,0,0,1,2.667.089c-.008-.616-.014-1.7.01-3.1.031-1.828,1.175-4.137,2.095-5.992.272-.548.518-1.046.7-1.459.525-1.208-.231-1.616-.388-1.686a.5.5,0,0,1-.26-.655.5.5,0,0,1,.648-.267,2.038,2.038,0,0,1,1.041,1.077,2.441,2.441,0,0,1-.124,1.929c-.185.427-.439.94-.719,1.5-.829,1.673-1.964,3.963-1.991,5.566-.026,1.522-.016,2.646-.008,3.213a14.091,14.091,0,0,1,1.67.365,8.118,8.118,0,0,1,.959-3.569c.276-.481.544-.889.78-1.25.678-1.032.879-1.4.657-1.855a.5.5,0,1,1,.9-.442c.493,1-.041,1.815-.718,2.846-.226.346-.484.738-.749,1.2a7.353,7.353,0,0,0-.837,3.4,7.935,7.935,0,0,1,1.282.623,5.253,5.253,0,0,0,1.043-2.7,11.516,11.516,0,0,1,.873-3A4.917,4.917,0,0,0,35.978,18.091Zm-9.837-4.012a.5.5,0,0,0-.665.24,11.23,11.23,0,0,0-1.024,4.534.5.5,0,0,0,.5.476h.024a.5.5,0,0,0,.476-.524,10.332,10.332,0,0,1,.93-4.06A.5.5,0,0,0,26.141,14.079Z"/></g><text x="0" y="63" fill="#000000" font-size="5px" font-weight="bold" font-family="'Helvetica Neue', Helvetica, Arial-Unicode, Arial, Sans-serif">Created by The Icon Z</text><text x="0" y="68" fill="#000000" font-size="5px" font-weight="bold" font-family="'Helvetica Neue', Helvetica, Arial-Unicode, Arial, Sans-serif">from the Noun Project</text></svg>