<svg xmlns="http://www.w3.org/2000/svg" xmlns:xlink="http://www.w3.org/1999/xlink" version="1.1" x="0px" y="0px" viewBox="0 0 1024 1280" style="enable-background:new 0 0 1024 1024;" xml:space="preserve"><g><g><path d="M212.41,654.94c-17.61,0-35.56-1.59-52.97-7.53c-28.61-9.76-50.77-31.12-59.28-57.15c-8.24-25.19-2.33-60.35,23.51-80.63    c-12.13-29.81-0.49-66.21,16.96-89.23c15.1-19.93,34.6-34.04,53.45-47.69c5.27-3.81,10.71-7.76,15.9-11.72    c19.93-15.22,38.97-33.01,57.38-50.22c14.39-13.45,29.28-27.36,44.69-40.16c44.23-36.75,84.64-56.02,123.54-58.92    c22.1-1.65,43.76,2.03,64.71,5.59c23.8,4.04,46.27,7.85,68.7,4.26c12.45-1.99,24.85-6.23,37.97-10.72    c23.93-8.18,48.68-16.65,74.33-10.69c27.34,6.35,47.06,27.03,66.14,47.03c7.43,7.79,15.12,15.85,22.95,22.65    c16.35,14.21,36.29,25.44,55.58,36.31c36.11,20.35,73.45,41.39,91.65,83.27c20.31,46.75,7.99,110.52-29.98,155.1    c-29.79,34.98-83.2,80.47-135.69,93.59l-4.85-19.4c44.83-11.2,95.24-51.84,125.31-87.15c33.2-38.98,44.25-94.15,26.86-134.16    c-15.52-35.72-48.36-54.23-83.12-73.81c-20.15-11.36-40.99-23.1-58.88-38.63c-8.54-7.42-16.55-15.82-24.3-23.95    c-17.83-18.7-34.67-36.35-56.19-41.35c-20.07-4.66-41.09,2.52-63.34,10.13c-13.35,4.56-27.15,9.28-41.29,11.55    c-25.68,4.11-50.86-0.16-75.21-4.29c-20.68-3.51-40.22-6.82-59.88-5.36c-34.61,2.58-71.33,20.36-112.25,54.36    c-14.96,12.43-29.63,26.14-43.81,39.39c-18.77,17.54-38.18,35.68-58.9,51.5c-5.39,4.12-10.95,8.14-16.31,12.02    c-18.48,13.38-35.94,26.02-49.24,43.57c-15.71,20.72-24.7,53.28-11.5,75.39c1.37,2.29,1.76,5.04,1.1,7.62    c-0.67,2.59-2.34,4.8-4.65,6.14c-23.32,13.6-28.92,42.31-22.35,62.41c6.57,20.09,24.04,36.7,46.73,44.44    c21.87,7.46,46.04,6.94,68.92,5.77c23.3-1.19,40.69-4.78,49.77-18.45l16.66,11.07c-14.52,21.85-40.01,26.06-65.41,27.36    C228.14,654.62,220.31,654.94,212.41,654.94z"/></g><g><path d="M613.95,583.84l-18.41-7.82c27.2-63.99,46.29-131.17,56.75-199.67l19.77,3.02C661.35,449.52,641.8,518.31,613.95,583.84z"/></g><g><path d="M472.2,579.94c-27.91-73.92-28.49-168.5-20.5-227.03l19.82,2.71c-8.28,60.65-5.49,151.36,19.39,217.26L472.2,579.94z"/></g><g><path d="M377.13,595.42c-60.22-36.2-96.28-67.84-126.28-140.28l18.48-7.65c28.03,67.69,60.42,96.11,118.1,130.79L377.13,595.42z"/></g><g><path d="M318.89,613.45c-59.31,0-110.49-14.57-140.4-39.97l12.95-15.25c26.36,22.38,72.81,35.21,127.45,35.21V613.45z"/></g><g><path d="M706.46,604.53L695,588.13c26.65-18.62,54.21-37.88,76.76-61.27c24.52-25.44,38.21-50.01,43.09-77.31l19.69,3.52    c-5.61,31.39-20.98,59.24-48.38,87.67C762.26,565.53,733.89,585.36,706.46,604.53z"/></g><g><path d="M738.58,825.85c-2.17,0-4.34-0.33-6.44-1.02c-24.06-7.8-110.44-33.27-211.96-33.27c-101.93,0-188,25.45-211.94,33.25    c-6.35,2.07-13.37,0.96-18.78-2.96c-5.41-3.93-8.64-10.26-8.64-16.95V628.38c0-19.86,24.52-35.07,74.97-46.5    c44.03-9.98,102.41-15.47,164.39-15.47c61.99,0,120.37,5.49,164.4,15.47c50.45,11.43,74.97,26.64,74.97,46.5v176.54    c0,6.68-3.22,13.01-8.63,16.94C747.3,824.48,742.96,825.85,738.58,825.85z M520.18,771.57c104.45,0,193.36,26.21,218.13,34.24    c0.12,0.04,0.46,0.15,0.85-0.13c0.39-0.28,0.39-0.63,0.39-0.76V628.38c0-3.51-10.91-16.01-59.39-26.99    c-42.62-9.66-99.43-14.97-159.98-14.97c-60.54,0-117.35,5.32-159.97,14.97c-48.48,10.98-59.39,23.48-59.39,26.99V804.9    c0,0.13,0,0.48,0.39,0.77c0.38,0.28,0.71,0.17,0.83,0.13C326.7,797.77,415.3,771.57,520.18,771.57z"/></g><g><path d="M739.58,683.8c-0.04-0.12-5.72-11.97-64.2-22.48c-42.1-7.57-97.22-11.73-155.21-11.73c-57.98,0-113.1,4.17-155.2,11.73    c-58.48,10.51-64.16,22.37-64.2,22.48c0.01-0.03,0.04-0.16,0.04-0.33h-20c0-15.38,17.99-23.52,23.9-26.19    c12.27-5.55,29.56-10.48,51.4-14.66c43.92-8.41,102.19-13.03,164.06-13.03c61.88,0,120.14,4.63,164.07,13.03    c21.84,4.18,39.13,9.11,51.4,14.66c5.91,2.67,23.9,10.81,23.9,26.19h-20C739.54,683.64,739.57,683.76,739.58,683.8z"/></g></g><text x="0" y="1039" fill="#000000" font-size="5px" font-weight="bold" font-family="'Helvetica Neue', Helvetica, Arial-Unicode, Arial, Sans-serif">Created by IconPai</text><text x="0" y="1044" fill="#000000" font-size="5px" font-weight="bold" font-family="'Helvetica Neue', Helvetica, Arial-Unicode, Arial, Sans-serif">from the Noun Project</text></svg>